<svg xmlns="http://www.w3.org/2000/svg" width="30" height="30" fill="none"><g clip-path="url(#clip0_2369_2424)"><path fill="#316DC2" d="M1 8.8c-1 .6-1.4 1.9-.5 3.4 1 1.6 14.4 12 14.9 12.2.5.3 1 .4 2.2-.7l12-9c.5-.4.6-1.4 0-1.8 0 0-12.7 9.5-13 9.9-.5.4-1.1-.3-1-1 .1-.9.2-1 1.8-2.2L28.6 11c.4-.4.5-1-.3-1.5L15.3.3c-.4-.3-1-.5-1.8 0L1 8.8Z"/><path fill="#316DC2" d="M15.4 25.4a302 302 0 0 1-10.5-8.2v7.3C4.9 30 20 32.8 25 26.2v-7l-7.4 5.6c-1.2 1-1.7 1-2.2.6Z"/><path fill="#98B8E6" d="M21.8 17.4s2.2 1.1 2.4 5.7l-1.1-.3-.9 1.8c-.3-5-2.3-5.7-2.3-5.7l1.9-1.5Z"/></g></svg>