<svg xmlns="http://www.w3.org/2000/svg" width="12" height="12"><path d="M7 .5c-.3 0-.6.2-.8.4l-.4 1c-.2.5-.2 1-.2 1.6-1 0-1.8.4-2.5.8-.3-.2-.7-.4-1-.4-.4 0-.7.2-1 .5A2 2 0 0 0 1.2 7v.6c0 2.2 2.1 4 4.8 4 2.7 0 4.8-1.8 4.8-4v-.6a2 2 0 0 0 .1-2.5c-.3-.3-.6-.5-1-.5-.3 0-.7.2-1 .4-.7-.4-1.5-.7-2.5-.8 0-.5 0-1 .2-1.4 0-.2 0-.4.2-.5l.2-.1c.3 0 .3 0 .5.3l.3.4.7.2v-1h-.2l-.2-.3C8 1 7.6.5 7.1.5Zm2.7 0C9 .6 8.5 1.3 8.5 2c0 .8.5 1.4 1.2 1.4.6 0 1.1-.6 1.1-1.4 0-.7-.5-1.3-1.1-1.3Zm0 .6c.4 0 .7.4.7.8 0 .5-.3 1-.7 1-.4 0-.8-.5-.8-1 0-.4.4-.8.8-.8ZM6 4.2c2.3 0 4.2 1.5 4.2 3.3 0 1.8-2 3.2-4.2 3.2-2.3 0-4.2-1.4-4.2-3.2 0-1.8 2-3.3 4.2-3.3Zm-3.9.5h.4a4 4 0 0 0-1 1.3V5l.6-.3Zm7.8 0c.2 0 .4 0 .5.3.2.2.2.7.1 1a4 4 0 0 0-1-1.2l.4-.1ZM4.4 5.9c-.4 0-.8.4-.8.9s.4.8.8.8.7-.3.7-.8-.3-1-.7-1Zm3.2 0c-.4 0-.7.4-.7.9s.3.8.7.8c.4 0 .8-.3.8-.8s-.4-1-.8-1ZM4 8.9c.2.6 1 1.2 2 1.2S7.8 9.5 8 9c-.4.3-1.2.6-2 .6s-1.6-.3-2-.6Z"/></svg>